<svg width="11" height="11" viewBox="0 0 11 11" fill="none" xmlns="http://www.w3.org/2000/svg">
<path d="M5.49108 10.8573V6.87288H4.15179V5.31931H5.49108V4.17422C5.49108 2.84832 6.30804 2.12511 7.49331 2.12511C8.05581 2.12511 8.54465 2.16529 8.68528 2.18537V3.57154L7.86831 3.57823C7.21876 3.57823 7.09822 3.87957 7.09822 4.32823V5.31931H8.63171L8.43081 6.87288H7.09822V10.8573H8.35715C9.42189 10.8573 10.2857 9.99342 10.2857 8.92869V2.50011C10.2857 1.43537 9.42189 0.571533 8.35715 0.571533H1.92857C0.86384 0.571533 0 1.43537 0 2.50011V8.92869C0 9.99342 0.86384 10.8573 1.92857 10.8573H5.49108Z" fill="white"/>
</svg>
