<svg width="31" height="31" fill="none" xmlns="http://www.w3.org/2000/svg"><path fill-rule="evenodd" clip-rule="evenodd" d="M15.364 0c8.48 0 15.364 6.884 15.364 15.364s-6.885 15.364-15.364 15.364C6.884 30.728 0 23.843 0 15.364 0 6.884 6.884 0 15.364 0z" fill="#107052"/><path fill-rule="evenodd" clip-rule="evenodd" d="M15.364 2.12c7.31 0 13.244 5.934 13.244 13.244s-5.934 13.244-13.244 13.244S2.119 22.674 2.119 15.364 8.054 2.119 15.364 2.119z" fill="#fff"/><path fill-rule="evenodd" clip-rule="evenodd" d="M15.241 9.502a5.442 5.442 0 00-7.693 0 5.443 5.443 0 000 7.693 5.443 5.443 0 007.693 0 5.443 5.443 0 000-7.694z" fill="#272727"/><path fill-rule="evenodd" clip-rule="evenodd" d="M22.96 17.17a5.443 5.443 0 00-.025-7.669 5.442 5.442 0 00-7.694 0l-7.693 7.694 7.693 7.693 7.694-7.693.024-.025z" fill="#107253"/></svg>