<svg width="109" height="52" fill="none" xmlns="http://www.w3.org/2000/svg"><path fill-rule="evenodd" clip-rule="evenodd" d="M8.056 9.728v1.88H.664V0h7.392v1.88H3.08v2.984h3.872V6.68H3.08v3.048h4.976zm2.866 1.716a.769.769 0 01-.504.164h-1.88L13.074 0h2.456l4.528 11.608h-1.864a.82.82 0 01-.508-.148.896.896 0 01-.292-.38l-.784-2.216h-4.624l-.784 2.216a.913.913 0 01-.28.364zM16.026 7.2H12.57l1.256-3.536a9.46 9.46 0 00.232-.66c.08-.253.157-.527.232-.82.08.288.161.557.244.808.083.25.161.47.236.656L16.026 7.2zm7.554-.016v4.424h-2.4V0h3.648c.81 0 1.504.084 2.08.252.576.168 1.048.401 1.416.7.368.299.637.655.808 1.068.17.413.256.868.256 1.364 0 .384-.055.748-.164 1.092a3.24 3.24 0 01-.476.94 3.432 3.432 0 01-.768.752 3.942 3.942 0 01-1.048.528c.155.085.3.188.436.308s.257.263.364.428l2.704 4.176h-2.168c-.405 0-.699-.155-.88-.464l-2.208-3.56a.934.934 0 00-.3-.304c-.11-.064-.27-.096-.484-.096h-.816zm1.232-1.688H23.58V1.824h1.248c.747 0 1.303.152 1.668.456.365.304.548.73.548 1.28 0 .277-.043.533-.128.768a1.585 1.585 0 01-.4.612c-.181.173-.413.31-.696.408a3.067 3.067 0 01-1.008.148zm11.362-3.56v9.672h-2.408V1.936h-3.392V0h9.192v1.936h-3.392zm7.306 9.672v-5h5.112v5h2.416V0h-2.416v4.928H43.48V0h-2.416v11.608h2.416zm16.276-5v5H57.34V0h2.416v4.928h5.112V0h2.416v11.608h-2.416v-5h-5.112zm17.402 5v-1.88h-4.976V6.68h3.872V4.864h-3.872V1.88h4.976V0h-7.392v11.608h7.392zm2.866-.164a.769.769 0 01-.504.164h-1.88L82.176 0h2.456l4.528 11.608h-1.864a.82.82 0 01-.508-.148.896.896 0 01-.292-.38l-.784-2.216h-4.624l-.784 2.216a.913.913 0 01-.28.364zM85.128 7.2h-3.456l1.256-3.536a9.46 9.46 0 00.232-.66c.08-.253.157-.527.232-.82.08.288.161.557.244.808.083.25.161.47.236.656L85.128 7.2zm7.554-.016v4.424h-2.4V0h3.648c.81 0 1.504.084 2.08.252.576.168 1.048.401 1.416.7.368.299.637.655.808 1.068.17.413.256.868.256 1.364 0 .384-.055.748-.164 1.092a3.24 3.24 0 01-.476.94 3.432 3.432 0 01-.768.752 3.942 3.942 0 01-1.048.528c.155.085.3.188.436.308s.257.263.364.428l2.704 4.176H97.37c-.405 0-.699-.155-.88-.464l-2.208-3.56a.934.934 0 00-.3-.304c-.11-.064-.27-.096-.484-.096h-.816zm1.232-1.688h-1.232V1.824h1.248c.747 0 1.303.152 1.668.456.365.304.548.73.548 1.28 0 .277-.043.533-.128.768a1.585 1.585 0 01-.4.612c-.181.173-.413.31-.696.408a3.067 3.067 0 01-1.008.148zm11.362-3.56v9.672h-2.408V1.936h-3.392V0h9.192v1.936h-3.392zM3.08 30.608v-4.632h4.176v-1.888H3.08V20.88h4.976V19H.664v11.608H3.08zm14.29-.324c-.73.301-1.541.452-2.432.452-.89 0-1.701-.15-2.432-.452a5.63 5.63 0 01-1.88-1.244 5.5 5.5 0 01-1.212-1.88 6.39 6.39 0 01-.428-2.36c0-.848.143-1.633.428-2.356a5.508 5.508 0 011.212-1.876 5.63 5.63 0 011.88-1.244c.73-.301 1.541-.452 2.432-.452.89 0 1.701.15 2.432.452.73.301 1.356.717 1.876 1.248.52.53.923 1.157 1.208 1.88.285.723.428 1.505.428 2.348a6.39 6.39 0 01-.428 2.36 5.53 5.53 0 01-1.208 1.88 5.586 5.586 0 01-1.876 1.244zm-2.432-1.572a3.8 3.8 0 01-1.464-.268 2.991 2.991 0 01-1.1-.772 3.428 3.428 0 01-.692-1.228 5.214 5.214 0 01-.24-1.644c0-.608.08-1.153.24-1.636.16-.483.39-.893.692-1.232a2.97 2.97 0 011.1-.776 3.8 3.8 0 011.464-.268c.544 0 1.03.09 1.46.268.43.179.795.437 1.096.776.301.339.532.75.692 1.232.16.483.24 1.028.24 1.636 0 .613-.08 1.161-.24 1.644-.16.483-.39.892-.692 1.228a2.999 2.999 0 01-1.096.772 3.77 3.77 0 01-1.46.268zm14.546 1.664c-.603.24-1.283.36-2.04.36-.757 0-1.439-.12-2.044-.36a4.423 4.423 0 01-1.54-1 4.377 4.377 0 01-.972-1.524 5.36 5.36 0 01-.34-1.94V19h2.4v6.912c0 .427.056.81.168 1.152.112.341.275.632.488.872.213.24.475.425.784.556.31.13.661.196 1.056.196.39 0 .739-.065 1.048-.196.31-.13.57-.316.784-.556.213-.24.376-.53.488-.872.112-.341.168-.725.168-1.152V19h2.4v6.912a5.36 5.36 0 01-.34 1.94 4.377 4.377 0 01-.972 1.524 4.43 4.43 0 01-1.536 1zm7.306.232v-6.712a13.479 13.479 0 00-.048-1.048l5.784 7.352c.123.15.248.255.376.316s.285.092.472.092h1.24V19h-2.12v6.64a12.121 12.121 0 00.064 1.136l-5.824-7.4a1.636 1.636 0 00-.176-.192.756.756 0 00-.168-.116.578.578 0 00-.196-.056 2.402 2.402 0 00-.26-.012H34.67v11.608h2.12zm17.202-.432c-.73.288-1.541.432-2.432.432h-4.464V19h4.464c.89 0 1.701.144 2.432.432a5.51 5.51 0 011.876 1.204 5.37 5.37 0 011.208 1.836 6.19 6.19 0 01.428 2.328c0 .848-.143 1.628-.428 2.34a5.318 5.318 0 01-1.208 1.836 5.524 5.524 0 01-1.876 1.2zm-2.432-1.448h-2.048V20.88h2.048c.544 0 1.03.09 1.46.272.43.181.793.44 1.092.776.299.336.528.747.688 1.232.16.485.24 1.032.24 1.64 0 .613-.08 1.163-.24 1.648-.16.485-.39.897-.688 1.236a2.941 2.941 0 01-1.092.776 3.77 3.77 0 01-1.46.268zm8.41 1.716a.769.769 0 01-.504.164h-1.88L62.122 19h2.456l4.528 11.608h-1.864a.82.82 0 01-.508-.148.896.896 0 01-.292-.38l-.784-2.216h-4.624l-.784 2.216a.913.913 0 01-.28.364zm5.104-4.244h-3.456l1.256-3.536a9.46 9.46 0 00.232-.66c.08-.253.157-.527.232-.82.08.288.161.557.244.808.083.25.161.47.236.656l1.256 3.552zm8.842-5.264v9.672h-2.408v-9.672h-3.392V19h9.192v1.936h-3.392zm7.306 9.672V19h-2.416v11.608h2.416zm10.186-.324c-.73.301-1.541.452-2.432.452-.89 0-1.701-.15-2.432-.452a5.63 5.63 0 01-1.88-1.244 5.5 5.5 0 01-1.212-1.88 6.39 6.39 0 01-.428-2.36c0-.848.143-1.633.428-2.356a5.507 5.507 0 011.212-1.876 5.63 5.63 0 011.88-1.244c.73-.301 1.541-.452 2.432-.452.89 0 1.701.15 2.432.452.73.301 1.356.717 1.876 1.248.52.53.923 1.157 1.208 1.88.285.723.428 1.505.428 2.348a6.39 6.39 0 01-.428 2.36 5.53 5.53 0 01-1.208 1.88 5.586 5.586 0 01-1.876 1.244zm-2.432-1.572a3.8 3.8 0 01-1.464-.268 2.991 2.991 0 01-1.1-.772 3.428 3.428 0 01-.692-1.228 5.214 5.214 0 01-.24-1.644c0-.608.08-1.153.24-1.636.16-.483.39-.893.692-1.232a2.97 2.97 0 011.1-.776 3.8 3.8 0 011.464-.268c.544 0 1.03.09 1.46.268.43.179.795.437 1.096.776.301.339.532.75.692 1.232.16.483.24 1.028.24 1.636 0 .613-.08 1.161-.24 1.644-.16.483-.39.892-.692 1.228a2.999 2.999 0 01-1.096.772 3.77 3.77 0 01-1.46.268zm9.874-4.816v6.712h-2.12V19h1.264c.101 0 .188.004.26.012a.578.578 0 01.196.056c.059.03.115.068.168.116.053.048.112.112.176.192l5.824 7.4c-.021-.203-.037-.4-.048-.592a9.515 9.515 0 01-.016-.544V19h2.12v11.608h-1.24c-.187 0-.344-.03-.472-.092a1.145 1.145 0 01-.376-.316l-5.784-7.352a13.479 13.479 0 01.048 1.048zM5.624 49.736c.96 0 1.788-.155 2.484-.464a4.53 4.53 0 001.748-1.36l-.952-1.016a.444.444 0 00-.336-.144.459.459 0 00-.208.048.989.989 0 00-.184.12 3.3 3.3 0 01-.508.384 2.724 2.724 0 01-.536.248c-.19.064-.395.11-.616.136-.221.027-.468.04-.74.04-.459 0-.89-.087-1.292-.26a2.997 2.997 0 01-1.056-.764 3.661 3.661 0 01-.712-1.236c-.173-.488-.26-1.044-.26-1.668 0-.619.08-1.17.24-1.656.16-.485.385-.895.676-1.228.29-.333.639-.588 1.044-.764.405-.176.85-.264 1.336-.264.437 0 .799.045 1.084.136.285.09.523.192.712.304.19.112.35.213.48.304.13.09.26.136.388.136s.23-.027.304-.08a.753.753 0 00.184-.184l.808-1.104a5.122 5.122 0 00-.756-.62c-.28-.19-.585-.35-.916-.484a5.868 5.868 0 00-1.068-.312 6.298 6.298 0 00-1.212-.112c-.57 0-1.108.065-1.612.196-.504.13-.97.32-1.396.568-.427.248-.81.548-1.148.9a5.55 5.55 0 00-.868 1.184 5.77 5.77 0 00-.548 1.436A6.995 6.995 0 000 43.8c0 .859.13 1.65.392 2.376a5.493 5.493 0 001.12 1.88c.485.528 1.075.94 1.768 1.236.693.296 1.475.444 2.344.444zm13.026-2.008v1.88h-7.392V38h7.392v1.88h-4.976v2.984h3.872v1.816h-3.872v3.048h4.976zm6.338 1.88c.688 0 1.297-.087 1.828-.26.53-.173.977-.415 1.34-.724.363-.31.639-.675.828-1.096.19-.421.284-.877.284-1.368 0-1.339-.773-2.19-2.32-2.552.352-.123.656-.272.912-.448s.465-.372.628-.588c.163-.216.283-.447.36-.692a2.54 2.54 0 00.116-.768c0-.475-.08-.904-.24-1.288a2.382 2.382 0 00-.764-.98c-.35-.27-.8-.477-1.352-.624-.552-.147-1.217-.22-1.996-.22h-4.12v11.608h4.496zm-2.096-6.648h1.576a4.3 4.3 0 00.896-.084 1.79 1.79 0 00.656-.268 1.2 1.2 0 00.404-.484c.093-.2.14-.441.14-.724a2.07 2.07 0 00-.116-.736 1.088 1.088 0 00-.356-.488 1.555 1.555 0 00-.608-.268 3.961 3.961 0 00-.872-.084h-1.72v3.136zm2.056 4.808h-2.056v-3.176h2.04c.363 0 .668.035.916.104.248.07.45.17.604.3.155.13.267.29.336.476.07.187.104.397.104.632 0 .213-.03.42-.088.62-.059.2-.163.377-.312.532a1.59 1.59 0 01-.596.372c-.248.093-.564.14-.948.14zm13.002 1.608c-.603.24-1.283.36-2.04.36-.757 0-1.439-.12-2.044-.36a4.423 4.423 0 01-1.54-1 4.377 4.377 0 01-.972-1.524 5.36 5.36 0 01-.34-1.94V38h2.4v6.912c0 .427.056.81.168 1.152.112.341.275.632.488.872.213.24.475.425.784.556.31.13.661.196 1.056.196.39 0 .739-.065 1.048-.196.31-.13.57-.316.784-.556.213-.24.376-.53.488-.872.112-.341.168-.725.168-1.152V38h2.4v6.912a5.36 5.36 0 01-.34 1.94 4.377 4.377 0 01-.972 1.524 4.43 4.43 0 01-1.536 1z" fill="#fff"/><path fill-rule="evenodd" clip-rule="evenodd" d="M50.938 37.5a6.942 6.942 0 016.939 6.938c0 3.83-3.11 6.939-6.939 6.939A6.942 6.942 0 0144 44.438a6.942 6.942 0 016.938-6.938z" fill="#107052"/><path fill-rule="evenodd" clip-rule="evenodd" d="M50.938 38.457a5.984 5.984 0 015.982 5.981 5.984 5.984 0 01-5.982 5.982 5.984 5.984 0 01-5.981-5.982 5.984 5.984 0 015.981-5.981z" fill="#fff"/><path fill-rule="evenodd" clip-rule="evenodd" d="M50.883 41.791a2.458 2.458 0 00-3.474 3.474 2.458 2.458 0 003.474-3.474z" fill="#272727"/><path fill-rule="evenodd" clip-rule="evenodd" d="M54.369 45.254a2.458 2.458 0 00-3.486-3.463l-3.474 3.474 3.474 3.475 3.475-3.475.01-.01z" fill="#107253"/></svg>