<svg>
  <symbol xmlns="http://www.w3.org/2000/svg" viewBox="0 0 11 11" id="icon_ig">
    <path fill-rule="evenodd" clip-rule="evenodd" d="M7.266 10.824c.823-.04 1.553-.228 2.156-.83.603-.603.79-1.333.83-2.157.027-.473.033-.943.034-1.415v-.974c0-.62.001-1.235-.034-1.856-.04-.824-.227-1.554-.83-2.157-.603-.602-1.333-.79-2.156-.83A25.937 25.937 0 005.85.57h-.974C4.257.571 3.64.57 3.02.605c-.824.04-1.553.228-2.156.83-.603.603-.79 1.333-.83 2.157A23.87 23.87 0 000 5.006v.974c-.001.62-.002 1.236.033 1.857.04.824.228 1.554.83 2.156.604.603 1.333.79 2.157.83.473.027.944.033 1.415.034h.974c.62.001 1.236.002 1.857-.033zm-1.936-.89h-.187c-.105 0-.227 0-.36.002-.822.008-2.092.02-2.674-.21a1.644 1.644 0 01-.589-.389 1.644 1.644 0 01-.388-.59c-.23-.58-.218-1.85-.21-2.672l.002-.36-.002-.361c-.008-.821-.02-2.092.21-2.673a1.63 1.63 0 01.388-.59c.18-.18.355-.294.59-.388.581-.23 1.851-.218 2.672-.21a39.161 39.161 0 00.721 0c.822-.008 2.092-.02 2.673.21.235.094.409.208.59.389.18.18.294.354.388.589.23.581.218 1.852.21 2.673a39.16 39.16 0 000 .72c.008.822.02 2.092-.21 2.674a1.644 1.644 0 01-.388.59 1.64 1.64 0 01-.59.387c-.581.23-1.851.219-2.673.21l-.173-.001zm3.174-6.965a.614.614 0 01-.616.616.614.614 0 01-.616-.616c0-.342.275-.616.616-.616.342 0 .616.274.616.616zM5.143 8.353A2.635 2.635 0 007.78 5.714a2.635 2.635 0 00-2.638-2.638 2.635 2.635 0 00-2.639 2.638 2.635 2.635 0 002.639 2.639zM3.429 5.714c0 .945.77 1.715 1.714 1.715s1.714-.77 1.714-1.715C6.857 4.77 6.087 4 5.143 4s-1.714.77-1.714 1.714z"></path>
  </symbol>
</svg>
