<svg width="11" height="9" viewBox="0 0 11 9" fill="none" xmlns="http://www.w3.org/2000/svg">
<path d="M3.61608 9.00015C7.59376 9.00015 9.77011 5.7055 9.77011 2.84612C9.77011 2.75237 9.77011 2.65862 9.76341 2.56487C10.1853 2.25684 10.5536 1.87514 10.8482 1.44657C10.4598 1.61398 10.038 1.73452 9.60269 1.78139C10.0514 1.51353 10.3929 1.09166 10.5536 0.589425C10.1384 0.837194 9.66966 1.018 9.18082 1.11175C8.78573 0.689872 8.22323 0.428711 7.60046 0.428711C6.4018 0.428711 5.43751 1.39969 5.43751 2.59166C5.43751 2.75907 5.4576 2.92648 5.49108 3.0872C3.69644 2.99345 2.09599 2.1363 1.03126 0.823801C0.843755 1.14523 0.736612 1.51353 0.736612 1.91532C0.736612 2.66532 1.11831 3.32827 1.7009 3.71666C1.34599 3.70327 1.01117 3.60282 0.723219 3.44211V3.46889C0.723219 4.52023 1.46652 5.39077 2.4576 5.59166C2.27679 5.63854 2.0826 5.66532 1.8884 5.66532C1.74777 5.66532 1.61385 5.65193 1.47992 5.63184C1.75447 6.48899 2.55135 7.11175 3.50224 7.13184C2.75894 7.71443 1.82813 8.05595 0.816969 8.05595C0.636165 8.05595 0.468755 8.04926 0.294647 8.02917C1.25224 8.64524 2.39063 9.00015 3.61608 9.00015Z" fill="white"/>
</svg>
