<!-- <svg>
  <symbol xmlns="http://www.w3.org/2000/svg" viewBox="0 0 11 9" id="icon_twitter">
    <path d="M3.616 9C7.594 9 9.77 5.705 9.77 2.846c0-.094 0-.187-.007-.281.422-.308.79-.69 1.085-1.118-.388.167-.81.288-1.245.334.448-.267.79-.69.95-1.192a4.258 4.258 0 01-1.372.523A2.158 2.158 0 007.6.429a2.162 2.162 0 00-2.163 2.163c0 .167.02.334.053.495A6.148 6.148 0 011.031.824a2.161 2.161 0 00.67 2.893 2.179 2.179 0 01-.978-.275v.027c0 1.051.744 1.922 1.735 2.123a2.286 2.286 0 01-.978.04 2.167 2.167 0 002.022 1.5 4.332 4.332 0 01-2.685.924c-.18 0-.348-.007-.522-.027A6.112 6.112 0 003.616 9z"></path>
  </symbol>
</svg> -->

<svg width="40" height="40" class="hidden" fill="#fff">
  <symbol id="menu" fill="white" enable-background="new 0 0 512 512" xmlns="http://www.w3.org/2000/svg" viewBox="0 0 512 512">
    <path d="m464.883 64.267h-417.766c-25.98 0-47.117 21.136-47.117 47.149 0 25.98 21.137 47.117 47.117 47.117h417.766c25.98 0 47.117-21.137 47.117-47.117 0-26.013-21.137-47.149-47.117-47.149z" fill="#ffffff"></path>
    <path d="m464.883 208.867h-417.766c-25.98 0-47.117 21.136-47.117 47.149 0 25.98 21.137 47.117 47.117 47.117h417.766c25.98 0 47.117-21.137 47.117-47.117 0-26.013-21.137-47.149-47.117-47.149z" fill="white"></path>
    <path d="m464.883 353.467h-417.766c-25.98 0-47.117 21.137-47.117 47.149 0 25.98 21.137 47.117 47.117 47.117h417.766c25.98 0 47.117-21.137 47.117-47.117 0-26.012-21.137-47.149-47.117-47.149z" fill="white"></path>
  </symbol>
</svg>
