<?xml version="1.0" encoding="utf-8"?>
<!-- Generator: Adobe Illustrator 22.0.0, SVG Export Plug-In . SVG Version: 6.00 Build 0)  -->
<svg version="1.1" id="Layer_1" xmlns="http://www.w3.org/2000/svg" xmlns:xlink="http://www.w3.org/1999/xlink" x="0px" y="0px"
	 viewBox="0 0 531 421.3" style="enable-background:new 0 0 531 421.3;" xml:space="preserve">
<style type="text/css">
	.st0{fill:#FFFFFF;}
</style>
<path class="st0" d="M473.5,14.7H55.7c-26,0-47.1,21.1-47.1,47.1c0,26,21.1,47.1,47.1,47.1h417.8c26,0,47.1-21.1,47.1-47.1
	C520.6,35.9,499.5,14.7,473.5,14.7z"/>
<path class="st0" d="M473.5,159.3H55.7c-26,0-47.1,21.1-47.1,47.1c0,26,21.1,47.1,47.1,47.1h417.8c26,0,47.1-21.1,47.1-47.1
	C520.6,180.5,499.5,159.3,473.5,159.3L473.5,159.3z"/>
<path class="st0" d="M473.5,303.9H55.7c-26,0-47.1,21.1-47.1,47.1c0,26,21.1,47.1,47.1,47.1h417.8c26,0,47.1-21.1,47.1-47.1
	C520.6,325.1,499.5,303.9,473.5,303.9z"/>
</svg>
