<svg width="16" height="16" fill="none" xmlns="http://www.w3.org/2000/svg"><path fill-rule="evenodd" clip-rule="evenodd" d="M15.86 7.93A7.933 7.933 0 007.93 0 7.933 7.933 0 000 7.93a7.933 7.933 0 007.93 7.93 7.933 7.933 0 007.93-7.93zm-1.094 0A6.84 6.84 0 007.93 1.094 6.84 6.84 0 001.094 7.93a6.84 6.84 0 006.836 6.836 6.84 6.84 0 006.836-6.836zm-6.9-3.026a2.809 2.809 0 00-3.97 0 2.81 2.81 0 000 3.97l3.97 3.971 3.971-3.97.013-.013a2.81 2.81 0 00-.013-3.958 2.809 2.809 0 00-3.97 0z" fill="#fff"/></svg>